<?xml version="1.0" ?><svg data-name="Layer 1" id="Layer_1" viewBox="0 0 64 64" xmlns="http://www.w3.org/2000/svg"><path d="M9,19v30c0,.55,.45,1,1,1H26.59l1.71,1.71c.19,.19,.44,.29,.71,.29h6c.27,0,.52-.11,.71-.29l1.71-1.71h16.59c.55,0,1-.45,1-1V19c0-.55-.45-1-1-1h-3v-2c0-.43-.28-.81-.68-.95l-5.32-1.77v-.28c0-.55-.45-1-1-1-5.4,0-10.04,3.31-12,8-1.96-4.69-6.6-8-12-8-.55,0-1,.45-1,1v.28l-5.32,1.77c-.41,.14-.68,.52-.68,.95v2h-3c-.55,0-1,.45-1,1Zm40.76,24.97c.3,.07,.61,0,.86-.19,.24-.19,.38-.48,.38-.79V20h2v28h-16c-.27,0-.52,.11-.71,.29l-1.71,1.71h-.82c5.63-8.43,15.55-6.14,15.99-6.03Zm-16.76-18.97c0-5.73,4.4-10.45,10-10.96v23.99c-4.21,.32-7.86,2.66-10,6.05V25ZM15,16.72l4-1.33v23.61c0,.55,.45,1,1,1,4.51,0,8.39,2.73,10.09,6.62-5.18-5.42-12.26-5.17-15.09-4.8V16.72Z"/></svg>